<svg width="969" height="859" viewBox="0 0 969 859" fill="none" xmlns="http://www.w3.org/2000/svg">
<line y1="-1.11111" x2="28.2657" y2="-1.11111" transform="matrix(0.490026 -0.871708 0.973338 0.229376 663.961 27.5061)" stroke="#E6E8EE" stroke-opacity="0.1" stroke-width="2.22222"/>
<line y1="-1.11111" x2="30.4245" y2="-1.11111" transform="matrix(0.665536 -0.746366 0.936693 0.350152 750.286 26.688)" stroke="#E6E8EE" stroke-opacity="0.1" stroke-width="2.22222"/>
<line y1="-1.11111" x2="32.8798" y2="-1.11111" transform="matrix(0.791708 -0.610899 0.878694 0.477385 837.068 25.8676)" stroke="#E6E8EE" stroke-opacity="0.1" stroke-width="2.22222"/>
<line y1="-1.11111" x2="35.3055" y2="-1.11111" transform="matrix(0.878694 -0.477386 0.791708 0.6109 924.434 24.2292)" stroke="#E6E8EE" stroke-opacity="0.1" stroke-width="2.22222"/>
<line y1="-1.11111" x2="35.3055" y2="-1.11111" transform="matrix(-0.878693 -0.477386 0.791707 -0.6109 59.7773 24.2292)" stroke="#E6E8EE" stroke-opacity="0.1" stroke-width="2.22222"/>
<line y1="-1.11111" x2="32.8797" y2="-1.11111" transform="matrix(-0.791708 -0.6109 0.878694 -0.477386 147.156 25.8676)" stroke="#E6E8EE" stroke-opacity="0.1" stroke-width="2.22222"/>
<line y1="-1.11111" x2="30.4245" y2="-1.11111" transform="matrix(-0.665536 -0.746365 0.936693 -0.350151 233.938 26.688)" stroke="#E6E8EE" stroke-opacity="0.1" stroke-width="2.22222"/>
<line y1="-1.11111" x2="28.2657" y2="-1.11111" transform="matrix(-0.490025 -0.871709 0.973338 -0.229376 320.263 27.5061)" stroke="#E6E8EE" stroke-opacity="0.1" stroke-width="2.22222"/>
<line y1="-1.11111" x2="26.7628" y2="-1.11111" transform="matrix(-0.262763 -0.96486 0.993546 -0.113429 406.27 28.3264)" stroke="#E6E8EE" stroke-opacity="0.1" stroke-width="2.22222"/>
<line x1="491.001" y1="28.3264" x2="491.001" y2="2.10566" stroke="#E6E8EE" stroke-opacity="0.1" stroke-width="2.22222"/>
<line y1="-1.11111" x2="26.7628" y2="-1.11111" transform="matrix(0.262763 -0.96486 0.993546 0.113429 577.954 28.3264)" stroke="#E6E8EE" stroke-opacity="0.1" stroke-width="2.22222"/>
<line y1="-1.11111" x2="28.2657" y2="-1.11111" transform="matrix(0.490025 -0.871709 0.973338 0.229376 572.849 73.3935)" stroke="#E6E8EE" stroke-opacity="0.1" stroke-width="2.22222"/>
<line y1="-1.11111" x2="30.4245" y2="-1.11111" transform="matrix(0.665536 -0.746365 0.936693 0.350151 659.161 72.5732)" stroke="#E6E8EE" stroke-opacity="0.1" stroke-width="2.22222"/>
<line y1="-1.11111" x2="32.8797" y2="-1.11111" transform="matrix(0.791707 -0.6109 0.878693 0.477386 745.942 71.7551)" stroke="#E6E8EE" stroke-opacity="0.1" stroke-width="2.22222"/>
<line y1="-1.11111" x2="35.3055" y2="-1.11111" transform="matrix(0.878694 -0.477386 0.791708 0.6109 833.321 70.1167)" stroke="#E6E8EE" stroke-opacity="0.1" stroke-width="2.22222"/>
<line y1="-1.11111" x2="37.442" y2="-1.11111" transform="matrix(0.936693 -0.350151 0.665537 0.746365 921.399 67.6579)" stroke="#E6E8EE" stroke-opacity="0.1" stroke-width="2.22222"/>
<line y1="-1.11111" x2="32.8797" y2="-1.11111" transform="matrix(-0.791707 -0.6109 0.878693 -0.477386 56.0437 71.755)" stroke="#E6E8EE" stroke-opacity="0.1" stroke-width="2.22222"/>
<line y1="-1.11111" x2="30.4245" y2="-1.11111" transform="matrix(-0.665536 -0.746365 0.936693 -0.350151 142.825 72.5732)" stroke="#E6E8EE" stroke-opacity="0.1" stroke-width="2.22222"/>
<line y1="-1.11111" x2="28.2657" y2="-1.11111" transform="matrix(-0.490025 -0.871708 0.973338 -0.229376 229.137 73.3935)" stroke="#E6E8EE" stroke-opacity="0.1" stroke-width="2.22222"/>
<line y1="-1.11111" x2="26.7628" y2="-1.11111" transform="matrix(-0.262763 -0.96486 0.993546 -0.11343 315.145 74.2116)" stroke="#E6E8EE" stroke-opacity="0.1" stroke-width="2.22222"/>
<line x1="399.875" y1="74.2116" x2="399.875" y2="47.9909" stroke="#E6E8EE" stroke-opacity="0.1" stroke-width="2.22222"/>
<line y1="-1.11111" x2="26.7628" y2="-1.11111" transform="matrix(0.262763 -0.96486 0.993546 0.113429 486.841 74.2116)" stroke="#E6E8EE" stroke-opacity="0.1" stroke-width="2.22222"/>
<line y1="-1.11111" x2="28.2657" y2="-1.11111" transform="matrix(0.490024 -0.871709 0.973338 0.229377 481.723 119.28)" stroke="#E6E8EE" stroke-opacity="0.1" stroke-width="2.22222"/>
<line y1="-1.11111" x2="30.4245" y2="-1.11111" transform="matrix(0.665536 -0.746365 0.936693 0.350151 568.048 118.46)" stroke="#E6E8EE" stroke-opacity="0.1" stroke-width="2.22222"/>
<line y1="-1.11111" x2="32.8797" y2="-1.11111" transform="matrix(0.791707 -0.6109 0.878693 0.477386 654.83 117.64)" stroke="#E6E8EE" stroke-opacity="0.1" stroke-width="2.22222"/>
<line y1="-1.11111" x2="35.3054" y2="-1.11111" transform="matrix(0.878693 -0.477387 0.791707 0.610901 742.208 116.001)" stroke="#E6E8EE" stroke-opacity="0.1" stroke-width="2.22222"/>
<line y1="-1.11111" x2="37.4419" y2="-1.11111" transform="matrix(0.936693 -0.350152 0.665536 0.746366 830.286 113.543)" stroke="#E6E8EE" stroke-opacity="0.1" stroke-width="2.22222"/>
<line y1="-1.11111" x2="39.0974" y2="-1.11111" transform="matrix(0.973338 -0.229376 0.490025 0.871708 919.164 111.904)" stroke="#E6E8EE" stroke-opacity="0.1" stroke-width="2.22222"/>
<line y1="-1.11111" x2="30.4245" y2="-1.11111" transform="matrix(-0.665536 -0.746365 0.936693 -0.350151 51.7 118.46)" stroke="#E6E8EE" stroke-opacity="0.1" stroke-width="2.22222"/>
<line y1="-1.11111" x2="28.2657" y2="-1.11111" transform="matrix(-0.490025 -0.871709 0.973338 -0.229376 138.025 119.28)" stroke="#E6E8EE" stroke-opacity="0.1" stroke-width="2.22222"/>
<line y1="-1.11111" x2="26.7628" y2="-1.11111" transform="matrix(-0.262763 -0.96486 0.993546 -0.113429 224.032 120.099)" stroke="#E6E8EE" stroke-opacity="0.1" stroke-width="2.22222"/>
<line x1="308.763" y1="120.099" x2="308.763" y2="93.8779" stroke="#E6E8EE" stroke-opacity="0.1" stroke-width="2.22222"/>
<line y1="-1.11111" x2="26.7628" y2="-1.11111" transform="matrix(0.262763 -0.96486 0.993546 0.113429 395.716 120.099)" stroke="#E6E8EE" stroke-opacity="0.1" stroke-width="2.22222"/>
<line y1="-1.11111" x2="28.2657" y2="-1.11111" transform="matrix(0.490025 -0.871709 0.973338 0.229376 390.61 165.165)" stroke="#E6E8EE" stroke-opacity="0.1" stroke-width="2.22222"/>
<line y1="-1.11111" x2="30.4245" y2="-1.11111" transform="matrix(0.665536 -0.746365 0.936693 0.350151 476.923 164.347)" stroke="#E6E8EE" stroke-opacity="0.1" stroke-width="2.22222"/>
<line y1="-1.11111" x2="32.8797" y2="-1.11111" transform="matrix(0.791707 -0.6109 0.878693 0.477386 563.705 163.527)" stroke="#E6E8EE" stroke-opacity="0.1" stroke-width="2.22222"/>
<line y1="-1.11111" x2="35.3055" y2="-1.11111" transform="matrix(0.878693 -0.477387 0.791707 0.610901 651.083 161.888)" stroke="#E6E8EE" stroke-opacity="0.1" stroke-width="2.22222"/>
<line y1="-1.11111" x2="37.442" y2="-1.11111" transform="matrix(0.936693 -0.350151 0.665536 0.746365 739.173 159.43)" stroke="#E6E8EE" stroke-opacity="0.1" stroke-width="2.22222"/>
<line y1="-1.11111" x2="39.0974" y2="-1.11111" transform="matrix(0.973338 -0.229377 0.490024 0.871709 828.051 157.791)" stroke="#E6E8EE" stroke-opacity="0.1" stroke-width="2.22222"/>
<line y1="-1.11111" x2="40.1411" y2="-1.11111" transform="matrix(0.993546 -0.11343 0.262763 0.96486 917.804 155.333)" stroke="#E6E8EE" stroke-opacity="0.1" stroke-width="2.22222"/>
<line y1="-1.11111" x2="28.2657" y2="-1.11111" transform="matrix(-0.490025 -0.871708 0.973338 -0.229376 46.8994 165.165)" stroke="#E6E8EE" stroke-opacity="0.1" stroke-width="2.22222"/>
<line y1="-1.11111" x2="26.7628" y2="-1.11111" transform="matrix(-0.262763 -0.96486 0.993546 -0.11343 132.906 165.986)" stroke="#E6E8EE" stroke-opacity="0.1" stroke-width="2.22222"/>
<line x1="217.637" y1="165.986" x2="217.637" y2="139.765" stroke="#E6E8EE" stroke-opacity="0.1" stroke-width="2.22222"/>
<line y1="-1.11111" x2="26.7628" y2="-1.11111" transform="matrix(0.262763 -0.96486 0.993546 0.11343 304.603 165.986)" stroke="#E6E8EE" stroke-opacity="0.1" stroke-width="2.22222"/>
<line y1="-1.11111" x2="28.2657" y2="-1.11111" transform="matrix(0.490024 -0.871709 0.973338 0.229377 299.485 211.052)" stroke="#E6E8EE" stroke-opacity="0.1" stroke-width="2.22222"/>
<line y1="-1.11111" x2="30.4245" y2="-1.11111" transform="matrix(0.665536 -0.746365 0.936693 0.350151 385.81 210.232)" stroke="#E6E8EE" stroke-opacity="0.1" stroke-width="2.22222"/>
<line y1="-1.11111" x2="32.8798" y2="-1.11111" transform="matrix(0.791708 -0.6109 0.878694 0.477386 472.592 209.414)" stroke="#E6E8EE" stroke-opacity="0.1" stroke-width="2.22222"/>
<line y1="-1.11111" x2="35.3055" y2="-1.11111" transform="matrix(0.878694 -0.477386 0.791708 0.6109 559.97 207.774)" stroke="#E6E8EE" stroke-opacity="0.1" stroke-width="2.22222"/>
<line y1="-1.11111" x2="37.442" y2="-1.11111" transform="matrix(0.936693 -0.350151 0.665536 0.746365 648.048 205.317)" stroke="#E6E8EE" stroke-opacity="0.1" stroke-width="2.22222"/>
<line y1="-1.11111" x2="39.0974" y2="-1.11111" transform="matrix(0.973338 -0.229376 0.490025 0.871708 736.925 203.676)" stroke="#E6E8EE" stroke-opacity="0.1" stroke-width="2.22222"/>
<line y1="-1.11111" x2="40.1412" y2="-1.11111" transform="matrix(0.993546 -0.113429 0.262763 0.96486 826.679 201.22)" stroke="#E6E8EE" stroke-opacity="0.1" stroke-width="2.22222"/>
<line y1="-1.11111" x2="26.7628" y2="-1.11111" transform="matrix(-0.262763 -0.96486 0.993546 -0.113429 41.7937 211.871)" stroke="#E6E8EE" stroke-opacity="0.1" stroke-width="2.22222"/>
<line x1="126.525" y1="211.871" x2="126.525" y2="185.65" stroke="#E6E8EE" stroke-opacity="0.1" stroke-width="2.22222"/>
<line y1="-1.11111" x2="26.7628" y2="-1.11111" transform="matrix(0.262763 -0.96486 0.993546 0.11343 213.478 211.871)" stroke="#E6E8EE" stroke-opacity="0.1" stroke-width="2.22222"/>
<line x1="967.958" y1="199.872" x2="927.461" y2="199.872" stroke="#E6E8EE" stroke-opacity="0.1" stroke-width="2.22222"/>
<line y1="-1.11111" x2="28.2657" y2="-1.11111" transform="matrix(0.490025 -0.871708 0.973338 0.229376 208.372 256.938)" stroke="#E6E8EE" stroke-opacity="0.1" stroke-width="2.22222"/>
<line y1="-1.11111" x2="30.4245" y2="-1.11111" transform="matrix(0.665536 -0.746365 0.936693 0.350151 294.684 256.119)" stroke="#E6E8EE" stroke-opacity="0.1" stroke-width="2.22222"/>
<line y1="-1.11111" x2="32.8798" y2="-1.11111" transform="matrix(0.791708 -0.6109 0.878694 0.477386 381.466 255.299)" stroke="#E6E8EE" stroke-opacity="0.1" stroke-width="2.22222"/>
<line y1="-1.11111" x2="35.3055" y2="-1.11111" transform="matrix(0.878694 -0.477386 0.791708 0.6109 468.845 253.661)" stroke="#E6E8EE" stroke-opacity="0.1" stroke-width="2.22222"/>
<line y1="-1.11111" x2="37.442" y2="-1.11111" transform="matrix(0.936693 -0.350152 0.665536 0.746366 556.935 251.202)" stroke="#E6E8EE" stroke-opacity="0.1" stroke-width="2.22222"/>
<line y1="-1.11111" x2="39.0974" y2="-1.11111" transform="matrix(0.973338 -0.229377 0.490024 0.871709 645.812 249.563)" stroke="#E6E8EE" stroke-opacity="0.1" stroke-width="2.22222"/>
<line y1="-1.11111" x2="40.1411" y2="-1.11111" transform="matrix(0.993546 -0.11343 0.262763 0.96486 735.566 247.105)" stroke="#E6E8EE" stroke-opacity="0.1" stroke-width="2.22222"/>
<line x1="35.3994" y1="257.758" x2="35.3994" y2="231.537" stroke="#E6E8EE" stroke-opacity="0.1" stroke-width="2.22222"/>
<line y1="-1.11111" x2="26.7628" y2="-1.11111" transform="matrix(0.262763 -0.96486 0.993546 0.113429 122.365 257.758)" stroke="#E6E8EE" stroke-opacity="0.1" stroke-width="2.22222"/>
<line x1="876.833" y1="245.759" x2="836.336" y2="245.759" stroke="#E6E8EE" stroke-opacity="0.1" stroke-width="2.22222"/>
<line y1="-1.11111" x2="40.1412" y2="-1.11111" transform="matrix(-0.993546 -0.113429 0.262763 -0.96486 967.501 247.105)" stroke="#E6E8EE" stroke-opacity="0.1" stroke-width="2.22222"/>
<line y1="-1.11111" x2="28.2657" y2="-1.11111" transform="matrix(0.490025 -0.871708 0.973338 0.229376 117.247 302.825)" stroke="#E6E8EE" stroke-opacity="0.1" stroke-width="2.22222"/>
<line y1="-1.11111" x2="30.4245" y2="-1.11111" transform="matrix(0.665536 -0.746366 0.936693 0.350152 203.572 302.005)" stroke="#E6E8EE" stroke-opacity="0.1" stroke-width="2.22222"/>
<line y1="-1.11111" x2="32.8798" y2="-1.11111" transform="matrix(0.791708 -0.6109 0.878694 0.477386 290.353 301.186)" stroke="#E6E8EE" stroke-opacity="0.1" stroke-width="2.22222"/>
<line y1="-1.11111" x2="35.3055" y2="-1.11111" transform="matrix(0.878693 -0.477387 0.791707 0.610901 377.732 299.548)" stroke="#E6E8EE" stroke-opacity="0.1" stroke-width="2.22222"/>
<line y1="-1.11111" x2="37.442" y2="-1.11111" transform="matrix(0.936693 -0.350152 0.665536 0.746366 465.81 297.089)" stroke="#E6E8EE" stroke-opacity="0.1" stroke-width="2.22222"/>
<line y1="-1.11111" x2="39.0974" y2="-1.11111" transform="matrix(0.973338 -0.229376 0.490025 0.871709 554.687 295.45)" stroke="#E6E8EE" stroke-opacity="0.1" stroke-width="2.22222"/>
<line y1="-1.11111" x2="40.1411" y2="-1.11111" transform="matrix(0.993546 -0.113429 0.262763 0.96486 644.441 292.992)" stroke="#E6E8EE" stroke-opacity="0.1" stroke-width="2.22222"/>
<line y1="-1.11111" x2="26.7628" y2="-1.11111" transform="matrix(0.262763 -0.96486 0.993546 0.11343 31.2397 303.645)" stroke="#E6E8EE" stroke-opacity="0.1" stroke-width="2.22222"/>
<line x1="785.721" y1="291.644" x2="745.223" y2="291.644" stroke="#E6E8EE" stroke-opacity="0.1" stroke-width="2.22222"/>
<line y1="-1.11111" x2="40.1411" y2="-1.11111" transform="matrix(-0.993546 -0.11343 0.262763 -0.96486 876.376 292.992)" stroke="#E6E8EE" stroke-opacity="0.1" stroke-width="2.22222"/>
<line y1="-1.11111" x2="39.0974" y2="-1.11111" transform="matrix(-0.973338 -0.229377 0.490024 -0.871709 966.129 295.45)" stroke="#E6E8EE" stroke-opacity="0.1" stroke-width="2.22222"/>
<line y1="-1.11111" x2="28.2657" y2="-1.11111" transform="matrix(0.490025 -0.871708 0.973338 0.229376 26.134 348.712)" stroke="#E6E8EE" stroke-opacity="0.1" stroke-width="2.22222"/>
<line y1="-1.11111" x2="30.4245" y2="-1.11111" transform="matrix(0.665536 -0.746365 0.936693 0.350151 112.446 347.892)" stroke="#E6E8EE" stroke-opacity="0.1" stroke-width="2.22222"/>
<line y1="-1.11111" x2="32.8797" y2="-1.11111" transform="matrix(0.791707 -0.610901 0.878693 0.477387 199.228 347.071)" stroke="#E6E8EE" stroke-opacity="0.1" stroke-width="2.22222"/>
<line y1="-1.11111" x2="35.3055" y2="-1.11111" transform="matrix(0.878694 -0.477386 0.791708 0.6109 286.607 345.433)" stroke="#E6E8EE" stroke-opacity="0.1" stroke-width="2.22222"/>
<line y1="-1.11111" x2="37.442" y2="-1.11111" transform="matrix(0.936693 -0.350151 0.665536 0.746365 374.697 342.974)" stroke="#E6E8EE" stroke-opacity="0.1" stroke-width="2.22222"/>
<line y1="-1.11111" x2="39.0974" y2="-1.11111" transform="matrix(0.973338 -0.229376 0.490025 0.871709 463.574 341.336)" stroke="#E6E8EE" stroke-opacity="0.1" stroke-width="2.22222"/>
<line y1="-1.11111" x2="40.1411" y2="-1.11111" transform="matrix(0.993546 -0.113429 0.262763 0.96486 553.328 338.879)" stroke="#E6E8EE" stroke-opacity="0.1" stroke-width="2.22222"/>
<line y1="-1.11111" x2="37.4419" y2="-1.11111" transform="matrix(-0.936693 -0.350152 0.665536 -0.746366 963.894 342.974)" stroke="#E6E8EE" stroke-opacity="0.1" stroke-width="2.22222"/>
<line x1="694.607" y1="337.531" x2="654.11" y2="337.531" stroke="#E6E8EE" stroke-opacity="0.1" stroke-width="2.22222"/>
<line y1="-1.11111" x2="40.1411" y2="-1.11111" transform="matrix(-0.993546 -0.11343 0.262763 -0.96486 785.263 338.879)" stroke="#E6E8EE" stroke-opacity="0.1" stroke-width="2.22222"/>
<line y1="-1.11111" x2="39.0974" y2="-1.11111" transform="matrix(-0.973338 -0.229376 0.490025 -0.871708 875.004 341.336)" stroke="#E6E8EE" stroke-opacity="0.1" stroke-width="2.22222"/>
<line y1="-1.11111" x2="30.4245" y2="-1.11111" transform="matrix(0.665536 -0.746365 0.936693 0.350151 21.3335 393.779)" stroke="#E6E8EE" stroke-opacity="0.1" stroke-width="2.22222"/>
<line y1="-1.11111" x2="32.8797" y2="-1.11111" transform="matrix(0.791708 -0.6109 0.878694 0.477386 108.115 392.958)" stroke="#E6E8EE" stroke-opacity="0.1" stroke-width="2.22222"/>
<line y1="-1.11111" x2="35.3055" y2="-1.11111" transform="matrix(0.878694 -0.477386 0.791708 0.6109 195.494 391.32)" stroke="#E6E8EE" stroke-opacity="0.1" stroke-width="2.22222"/>
<line y1="-1.11111" x2="37.442" y2="-1.11111" transform="matrix(0.936693 -0.350151 0.665536 0.746365 283.571 388.861)" stroke="#E6E8EE" stroke-opacity="0.1" stroke-width="2.22222"/>
<line y1="-1.11111" x2="39.0974" y2="-1.11111" transform="matrix(0.973338 -0.229376 0.490025 0.871709 372.449 387.223)" stroke="#E6E8EE" stroke-opacity="0.1" stroke-width="2.22222"/>
<line y1="-1.11111" x2="40.1411" y2="-1.11111" transform="matrix(0.993546 -0.113429 0.262763 0.96486 462.203 384.764)" stroke="#E6E8EE" stroke-opacity="0.1" stroke-width="2.22222"/>
<line y1="-1.11111" x2="37.442" y2="-1.11111" transform="matrix(-0.936693 -0.350151 0.665536 -0.746365 872.769 388.861)" stroke="#E6E8EE" stroke-opacity="0.1" stroke-width="2.22222"/>
<line y1="-1.11111" x2="35.3055" y2="-1.11111" transform="matrix(-0.878694 -0.477386 0.791708 -0.6109 960.859 391.32)" stroke="#E6E8EE" stroke-opacity="0.1" stroke-width="2.22222"/>
<line x1="603.482" y1="383.416" x2="562.985" y2="383.416" stroke="#E6E8EE" stroke-opacity="0.1" stroke-width="2.22222"/>
<line y1="-1.11111" x2="40.1411" y2="-1.11111" transform="matrix(-0.993546 -0.113429 0.262763 -0.96486 694.137 384.764)" stroke="#E6E8EE" stroke-opacity="0.1" stroke-width="2.22222"/>
<line y1="-1.11111" x2="39.0974" y2="-1.11111" transform="matrix(-0.973338 -0.229376 0.490025 -0.871708 783.891 387.223)" stroke="#E6E8EE" stroke-opacity="0.1" stroke-width="2.22222"/>
<line y1="-1.11111" x2="32.8797" y2="-1.11111" transform="matrix(0.791708 -0.6109 0.878694 0.477386 16.9897 438.845)" stroke="#E6E8EE" stroke-opacity="0.1" stroke-width="2.22222"/>
<line y1="-1.11111" x2="35.3055" y2="-1.11111" transform="matrix(0.878693 -0.477387 0.791707 0.610901 104.369 437.205)" stroke="#E6E8EE" stroke-opacity="0.1" stroke-width="2.22222"/>
<line y1="-1.11111" x2="37.442" y2="-1.11111" transform="matrix(0.936693 -0.350151 0.665536 0.746365 192.458 434.748)" stroke="#E6E8EE" stroke-opacity="0.1" stroke-width="2.22222"/>
<line y1="-1.11111" x2="39.0974" y2="-1.11111" transform="matrix(0.973338 -0.229376 0.490025 0.871709 281.336 433.11)" stroke="#E6E8EE" stroke-opacity="0.1" stroke-width="2.22222"/>
<line y1="-1.11111" x2="40.1411" y2="-1.11111" transform="matrix(0.993546 -0.11343 0.262763 0.96486 371.09 430.651)" stroke="#E6E8EE" stroke-opacity="0.1" stroke-width="2.22222"/>
<line y1="-1.11111" x2="37.442" y2="-1.11111" transform="matrix(-0.936693 -0.350151 0.665536 -0.746365 781.656 434.748)" stroke="#E6E8EE" stroke-opacity="0.1" stroke-width="2.22222"/>
<line y1="-1.11111" x2="35.3055" y2="-1.11111" transform="matrix(-0.878693 -0.477387 0.791707 -0.610901 869.733 437.205)" stroke="#E6E8EE" stroke-opacity="0.1" stroke-width="2.22222"/>
<line y1="-1.11111" x2="32.8798" y2="-1.11111" transform="matrix(-0.791709 -0.610899 0.878694 -0.477385 957.112 438.845)" stroke="#E6E8EE" stroke-opacity="0.1" stroke-width="2.22222"/>
<line x1="512.369" y1="429.304" x2="471.872" y2="429.304" stroke="#E6E8EE" stroke-opacity="0.1" stroke-width="2.22222"/>
<line y1="-1.11111" x2="40.1411" y2="-1.11111" transform="matrix(-0.993546 -0.113429 0.262763 -0.96486 603.025 430.651)" stroke="#E6E8EE" stroke-opacity="0.1" stroke-width="2.22222"/>
<line y1="-1.11111" x2="39.0974" y2="-1.11111" transform="matrix(-0.973338 -0.229376 0.490025 -0.871709 692.778 433.11)" stroke="#E6E8EE" stroke-opacity="0.1" stroke-width="2.22222"/>
<line y1="-1.11111" x2="35.3055" y2="-1.11111" transform="matrix(0.878694 -0.477386 0.791708 0.6109 13.2559 483.092)" stroke="#E6E8EE" stroke-opacity="0.1" stroke-width="2.22222"/>
<line y1="-1.11111" x2="37.442" y2="-1.11111" transform="matrix(0.936693 -0.350151 0.665536 0.746365 101.333 480.633)" stroke="#E6E8EE" stroke-opacity="0.1" stroke-width="2.22222"/>
<line y1="-1.11111" x2="39.0974" y2="-1.11111" transform="matrix(0.973338 -0.229376 0.490025 0.871709 190.211 478.995)" stroke="#E6E8EE" stroke-opacity="0.1" stroke-width="2.22222"/>
<line y1="-1.11111" x2="40.1411" y2="-1.11111" transform="matrix(0.993546 -0.11343 0.262763 0.96486 279.964 476.536)" stroke="#E6E8EE" stroke-opacity="0.1" stroke-width="2.22222"/>
<line y1="-1.11111" x2="37.442" y2="-1.11111" transform="matrix(-0.936693 -0.350152 0.665536 -0.746366 690.531 480.633)" stroke="#E6E8EE" stroke-opacity="0.1" stroke-width="2.22222"/>
<line y1="-1.11111" x2="35.3054" y2="-1.11111" transform="matrix(-0.878693 -0.477387 0.791707 -0.610901 778.621 483.092)" stroke="#E6E8EE" stroke-opacity="0.1" stroke-width="2.22222"/>
<line y1="-1.11111" x2="32.8797" y2="-1.11111" transform="matrix(-0.791707 -0.610901 0.878693 -0.477387 865.987 484.731)" stroke="#E6E8EE" stroke-opacity="0.1" stroke-width="2.22222"/>
<line y1="-1.11111" x2="30.4245" y2="-1.11111" transform="matrix(-0.665536 -0.746366 0.936693 -0.350152 952.781 485.551)" stroke="#E6E8EE" stroke-opacity="0.1" stroke-width="2.22222"/>
<line x1="421.244" y1="475.191" x2="380.746" y2="475.191" stroke="#E6E8EE" stroke-opacity="0.1" stroke-width="2.22222"/>
<line y1="-1.11111" x2="40.1411" y2="-1.11111" transform="matrix(-0.993546 -0.113429 0.262763 -0.96486 511.899 476.536)" stroke="#E6E8EE" stroke-opacity="0.1" stroke-width="2.22222"/>
<line y1="-1.11111" x2="39.0974" y2="-1.11111" transform="matrix(-0.973338 -0.229376 0.490025 -0.871709 601.653 478.995)" stroke="#E6E8EE" stroke-opacity="0.1" stroke-width="2.22222"/>
<line y1="-1.11111" x2="37.442" y2="-1.11111" transform="matrix(0.936693 -0.350151 0.665536 0.746365 10.2207 526.52)" stroke="#E6E8EE" stroke-opacity="0.1" stroke-width="2.22222"/>
<line y1="-1.11111" x2="39.0974" y2="-1.11111" transform="matrix(0.973338 -0.229376 0.490025 0.871709 99.0979 524.882)" stroke="#E6E8EE" stroke-opacity="0.1" stroke-width="2.22222"/>
<line y1="-1.11111" x2="40.1411" y2="-1.11111" transform="matrix(0.993546 -0.11343 0.262763 0.96486 188.852 522.423)" stroke="#E6E8EE" stroke-opacity="0.1" stroke-width="2.22222"/>
<line y1="-1.11111" x2="37.442" y2="-1.11111" transform="matrix(-0.936693 -0.350152 0.665536 -0.746366 599.418 526.52)" stroke="#E6E8EE" stroke-opacity="0.1" stroke-width="2.22222"/>
<line y1="-1.11111" x2="35.3055" y2="-1.11111" transform="matrix(-0.878693 -0.477387 0.791707 -0.610901 687.495 528.979)" stroke="#E6E8EE" stroke-opacity="0.1" stroke-width="2.22222"/>
<line y1="-1.11111" x2="32.8797" y2="-1.11111" transform="matrix(-0.791708 -0.6109 0.878694 -0.477386 774.874 530.618)" stroke="#E6E8EE" stroke-opacity="0.1" stroke-width="2.22222"/>
<line y1="-1.11111" x2="30.4246" y2="-1.11111" transform="matrix(-0.665537 -0.746365 0.936693 -0.350151 861.656 531.436)" stroke="#E6E8EE" stroke-opacity="0.1" stroke-width="2.22222"/>
<line y1="-1.11111" x2="28.2657" y2="-1.11111" transform="matrix(-0.490024 -0.871709 0.973338 -0.229377 947.981 532.256)" stroke="#E6E8EE" stroke-opacity="0.1" stroke-width="2.22222"/>
<line x1="330.131" y1="521.076" x2="289.634" y2="521.076" stroke="#E6E8EE" stroke-opacity="0.1" stroke-width="2.22222"/>
<line y1="-1.11111" x2="40.1411" y2="-1.11111" transform="matrix(-0.993546 -0.113429 0.262763 -0.96486 420.787 522.423)" stroke="#E6E8EE" stroke-opacity="0.1" stroke-width="2.22222"/>
<line y1="-1.11111" x2="39.0974" y2="-1.11111" transform="matrix(-0.973338 -0.229376 0.490025 -0.871708 510.54 524.882)" stroke="#E6E8EE" stroke-opacity="0.1" stroke-width="2.22222"/>
<line y1="-1.11111" x2="39.0974" y2="-1.11111" transform="matrix(0.973338 -0.229376 0.490025 0.871708 7.97241 570.767)" stroke="#E6E8EE" stroke-opacity="0.1" stroke-width="2.22222"/>
<line y1="-1.11111" x2="40.1411" y2="-1.11111" transform="matrix(0.993546 -0.11343 0.262763 0.96486 97.7263 568.311)" stroke="#E6E8EE" stroke-opacity="0.1" stroke-width="2.22222"/>
<line y1="-1.11111" x2="37.442" y2="-1.11111" transform="matrix(-0.936693 -0.350152 0.665535 -0.746367 508.292 572.408)" stroke="#E6E8EE" stroke-opacity="0.1" stroke-width="2.22222"/>
<line y1="-1.11111" x2="35.3055" y2="-1.11111" transform="matrix(-0.878694 -0.477386 0.791708 -0.6109 596.382 574.864)" stroke="#E6E8EE" stroke-opacity="0.1" stroke-width="2.22222"/>
<line y1="-1.11111" x2="32.8797" y2="-1.11111" transform="matrix(-0.791707 -0.610901 0.878693 -0.477387 683.761 576.503)" stroke="#E6E8EE" stroke-opacity="0.1" stroke-width="2.22222"/>
<line y1="-1.11111" x2="30.4246" y2="-1.11111" transform="matrix(-0.665537 -0.746365 0.936693 -0.350151 770.543 577.323)" stroke="#E6E8EE" stroke-opacity="0.1" stroke-width="2.22222"/>
<line y1="-1.11111" x2="28.2657" y2="-1.11111" transform="matrix(-0.490025 -0.871709 0.973338 -0.229376 856.856 578.143)" stroke="#E6E8EE" stroke-opacity="0.1" stroke-width="2.22222"/>
<line y1="-1.11111" x2="26.7628" y2="-1.11111" transform="matrix(-0.262763 -0.96486 0.993546 -0.113429 942.863 578.962)" stroke="#E6E8EE" stroke-opacity="0.1" stroke-width="2.22222"/>
<line x1="239.006" y1="566.963" x2="198.508" y2="566.963" stroke="#E6E8EE" stroke-opacity="0.1" stroke-width="2.22222"/>
<line y1="-1.11111" x2="40.1411" y2="-1.11111" transform="matrix(-0.993546 -0.11343 0.262763 -0.96486 329.662 568.311)" stroke="#E6E8EE" stroke-opacity="0.1" stroke-width="2.22222"/>
<line y1="-1.11111" x2="39.0974" y2="-1.11111" transform="matrix(-0.973338 -0.229376 0.490025 -0.871708 419.415 570.767)" stroke="#E6E8EE" stroke-opacity="0.1" stroke-width="2.22222"/>
<line y1="-1.11111" x2="40.1411" y2="-1.11111" transform="matrix(0.993546 -0.11343 0.262763 0.96486 6.61353 614.195)" stroke="#E6E8EE" stroke-opacity="0.1" stroke-width="2.22222"/>
<line y1="-1.11111" x2="37.442" y2="-1.11111" transform="matrix(-0.936693 -0.350152 0.665535 -0.746367 417.18 618.293)" stroke="#E6E8EE" stroke-opacity="0.1" stroke-width="2.22222"/>
<line y1="-1.11111" x2="35.3055" y2="-1.11111" transform="matrix(-0.878693 -0.477387 0.791707 -0.610901 505.257 620.751)" stroke="#E6E8EE" stroke-opacity="0.1" stroke-width="2.22222"/>
<line y1="-1.11111" x2="32.8797" y2="-1.11111" transform="matrix(-0.791708 -0.6109 0.878694 -0.477386 592.636 622.39)" stroke="#E6E8EE" stroke-opacity="0.1" stroke-width="2.22222"/>
<line y1="-1.11111" x2="30.4245" y2="-1.11111" transform="matrix(-0.665536 -0.746365 0.936693 -0.350151 679.418 623.21)" stroke="#E6E8EE" stroke-opacity="0.1" stroke-width="2.22222"/>
<line y1="-1.11111" x2="28.2657" y2="-1.11111" transform="matrix(-0.490027 -0.871707 0.973338 -0.229375 765.742 624.028)" stroke="#E6E8EE" stroke-opacity="0.1" stroke-width="2.22222"/>
<line y1="-1.11111" x2="26.7628" y2="-1.11111" transform="matrix(-0.262764 -0.96486 0.993546 -0.113429 851.749 624.848)" stroke="#E6E8EE" stroke-opacity="0.1" stroke-width="2.22222"/>
<line x1="936.481" y1="624.848" x2="936.481" y2="598.628" stroke="#E6E8EE" stroke-opacity="0.1" stroke-width="2.22222"/>
<line x1="147.893" y1="612.848" x2="107.396" y2="612.848" stroke="#E6E8EE" stroke-opacity="0.1" stroke-width="2.22222"/>
<line y1="-1.11111" x2="40.1411" y2="-1.11111" transform="matrix(-0.993546 -0.11343 0.262763 -0.96486 238.548 614.195)" stroke="#E6E8EE" stroke-opacity="0.1" stroke-width="2.22222"/>
<line y1="-1.11111" x2="39.0974" y2="-1.11111" transform="matrix(-0.973338 -0.229376 0.490025 -0.871708 328.302 616.654)" stroke="#E6E8EE" stroke-opacity="0.1" stroke-width="2.22222"/>
<line y1="-1.11111" x2="37.442" y2="-1.11111" transform="matrix(-0.936693 -0.350151 0.665537 -0.746365 326.054 664.18)" stroke="#E6E8EE" stroke-opacity="0.1" stroke-width="2.22222"/>
<line y1="-1.11111" x2="35.3055" y2="-1.11111" transform="matrix(-0.878694 -0.477386 0.791708 -0.6109 414.144 666.636)" stroke="#E6E8EE" stroke-opacity="0.1" stroke-width="2.22222"/>
<line y1="-1.11111" x2="32.8797" y2="-1.11111" transform="matrix(-0.791708 -0.6109 0.878694 -0.477386 501.524 668.277)" stroke="#E6E8EE" stroke-opacity="0.1" stroke-width="2.22222"/>
<line y1="-1.11111" x2="30.4245" y2="-1.11111" transform="matrix(-0.665536 -0.746365 0.936693 -0.350151 588.305 669.095)" stroke="#E6E8EE" stroke-opacity="0.1" stroke-width="2.22222"/>
<line y1="-1.11111" x2="28.2657" y2="-1.11111" transform="matrix(-0.490025 -0.871709 0.973338 -0.229376 674.617 669.915)" stroke="#E6E8EE" stroke-opacity="0.1" stroke-width="2.22222"/>
<line y1="-1.11111" x2="26.7629" y2="-1.11111" transform="matrix(-0.262763 -0.96486 0.993546 -0.113429 760.624 670.733)" stroke="#E6E8EE" stroke-opacity="0.1" stroke-width="2.22222"/>
<line x1="845.355" y1="670.733" x2="845.355" y2="644.513" stroke="#E6E8EE" stroke-opacity="0.1" stroke-width="2.22222"/>
<line y1="-1.11111" x2="26.7629" y2="-1.11111" transform="matrix(0.262763 -0.96486 0.993546 0.113429 932.321 670.733)" stroke="#E6E8EE" stroke-opacity="0.1" stroke-width="2.22222"/>
<line x1="56.7673" y1="658.735" x2="16.2701" y2="658.735" stroke="#E6E8EE" stroke-opacity="0.1" stroke-width="2.22222"/>
<line y1="-1.11111" x2="40.1411" y2="-1.11111" transform="matrix(-0.993546 -0.11343 0.262763 -0.96486 147.423 660.083)" stroke="#E6E8EE" stroke-opacity="0.1" stroke-width="2.22222"/>
<line y1="-1.11111" x2="39.0974" y2="-1.11111" transform="matrix(-0.973338 -0.229376 0.490025 -0.871709 237.177 662.541)" stroke="#E6E8EE" stroke-opacity="0.1" stroke-width="2.22222"/>
<line y1="-1.11111" x2="28.2657" y2="-1.11111" transform="matrix(0.490025 -0.871709 0.973338 0.229376 927.203 715.801)" stroke="#E6E8EE" stroke-opacity="0.1" stroke-width="2.22222"/>
<line y1="-1.11111" x2="37.442" y2="-1.11111" transform="matrix(-0.936693 -0.350152 0.665535 -0.746366 234.941 710.065)" stroke="#E6E8EE" stroke-opacity="0.1" stroke-width="2.22222"/>
<line y1="-1.11111" x2="35.3055" y2="-1.11111" transform="matrix(-0.878693 -0.477388 0.791707 -0.610902 323.019 712.524)" stroke="#E6E8EE" stroke-opacity="0.1" stroke-width="2.22222"/>
<line y1="-1.11111" x2="32.8797" y2="-1.11111" transform="matrix(-0.791708 -0.6109 0.878694 -0.477386 410.398 714.162)" stroke="#E6E8EE" stroke-opacity="0.1" stroke-width="2.22222"/>
<line y1="-1.11111" x2="30.4245" y2="-1.11111" transform="matrix(-0.665537 -0.746364 0.936693 -0.35015 497.179 714.982)" stroke="#E6E8EE" stroke-opacity="0.1" stroke-width="2.22222"/>
<line y1="-1.11111" x2="28.2657" y2="-1.11111" transform="matrix(-0.490025 -0.871709 0.973338 -0.229376 583.504 715.801)" stroke="#E6E8EE" stroke-opacity="0.1" stroke-width="2.22222"/>
<line y1="-1.11111" x2="26.7628" y2="-1.11111" transform="matrix(-0.262764 -0.96486 0.993546 -0.113429 669.512 716.621)" stroke="#E6E8EE" stroke-opacity="0.1" stroke-width="2.22222"/>
<line x1="754.242" y1="716.621" x2="754.242" y2="690.4" stroke="#E6E8EE" stroke-opacity="0.1" stroke-width="2.22222"/>
<line y1="-1.11111" x2="26.7628" y2="-1.11111" transform="matrix(0.262761 -0.964861 0.993546 0.11343 841.196 716.621)" stroke="#E6E8EE" stroke-opacity="0.1" stroke-width="2.22222"/>
<line y1="-1.11111" x2="40.1411" y2="-1.11111" transform="matrix(-0.993546 -0.11343 0.262763 -0.96486 56.3105 705.968)" stroke="#E6E8EE" stroke-opacity="0.1" stroke-width="2.22222"/>
<line y1="-1.11111" x2="39.0974" y2="-1.11111" transform="matrix(-0.973338 -0.229376 0.490025 -0.871709 146.064 708.426)" stroke="#E6E8EE" stroke-opacity="0.1" stroke-width="2.22222"/>
<line y1="-1.11111" x2="28.2657" y2="-1.11111" transform="matrix(0.490025 -0.871709 0.973338 0.229376 836.09 761.688)" stroke="#E6E8EE" stroke-opacity="0.1" stroke-width="2.22222"/>
<line y1="-1.11111" x2="30.4246" y2="-1.11111" transform="matrix(0.665537 -0.746365 0.936693 0.350151 922.402 760.867)" stroke="#E6E8EE" stroke-opacity="0.1" stroke-width="2.22222"/>
<line y1="-1.11111" x2="37.442" y2="-1.11111" transform="matrix(-0.936693 -0.350151 0.665537 -0.746365 143.816 755.952)" stroke="#E6E8EE" stroke-opacity="0.1" stroke-width="2.22222"/>
<line y1="-1.11111" x2="35.3055" y2="-1.11111" transform="matrix(-0.878694 -0.477386 0.791708 -0.6109 231.906 758.411)" stroke="#E6E8EE" stroke-opacity="0.1" stroke-width="2.22222"/>
<line y1="-1.11111" x2="32.8797" y2="-1.11111" transform="matrix(-0.791708 -0.6109 0.878694 -0.477386 319.285 760.049)" stroke="#E6E8EE" stroke-opacity="0.1" stroke-width="2.22222"/>
<line y1="-1.11111" x2="30.4245" y2="-1.11111" transform="matrix(-0.665536 -0.746365 0.936693 -0.350151 406.067 760.867)" stroke="#E6E8EE" stroke-opacity="0.1" stroke-width="2.22222"/>
<line y1="-1.11111" x2="28.2657" y2="-1.11111" transform="matrix(-0.490025 -0.871709 0.973338 -0.229376 492.379 761.688)" stroke="#E6E8EE" stroke-opacity="0.1" stroke-width="2.22222"/>
<line y1="-1.11111" x2="26.7628" y2="-1.11111" transform="matrix(-0.262764 -0.96486 0.993546 -0.113429 578.386 762.508)" stroke="#E6E8EE" stroke-opacity="0.1" stroke-width="2.22222"/>
<line x1="663.117" y1="762.508" x2="663.117" y2="736.287" stroke="#E6E8EE" stroke-opacity="0.1" stroke-width="2.22222"/>
<line y1="-1.11111" x2="26.7628" y2="-1.11111" transform="matrix(0.262761 -0.964861 0.993546 0.11343 750.083 762.508)" stroke="#E6E8EE" stroke-opacity="0.1" stroke-width="2.22222"/>
<line y1="-1.11111" x2="39.0974" y2="-1.11111" transform="matrix(-0.973337 -0.229378 0.490022 -0.87171 54.9385 754.313)" stroke="#E6E8EE" stroke-opacity="0.1" stroke-width="2.22222"/>
<line y1="-1.11111" x2="28.2658" y2="-1.11111" transform="matrix(0.490026 -0.871708 0.973338 0.229376 744.965 807.574)" stroke="#E6E8EE" stroke-opacity="0.1" stroke-width="2.22222"/>
<line y1="-1.11111" x2="30.4246" y2="-1.11111" transform="matrix(0.665537 -0.746365 0.936693 0.350151 831.289 806.754)" stroke="#E6E8EE" stroke-opacity="0.1" stroke-width="2.22222"/>
<line y1="-1.11111" x2="32.8797" y2="-1.11111" transform="matrix(0.791708 -0.6109 0.878694 0.477386 918.071 805.934)" stroke="#E6E8EE" stroke-opacity="0.1" stroke-width="2.22222"/>
<line y1="-1.11111" x2="37.442" y2="-1.11111" transform="matrix(-0.936693 -0.350152 0.665535 -0.746366 52.7034 801.839)" stroke="#E6E8EE" stroke-opacity="0.1" stroke-width="2.22222"/>
<line y1="-1.11111" x2="35.3055" y2="-1.11111" transform="matrix(-0.878694 -0.477386 0.791708 -0.6109 140.781 804.295)" stroke="#E6E8EE" stroke-opacity="0.1" stroke-width="2.22222"/>
<line y1="-1.11111" x2="32.8797" y2="-1.11111" transform="matrix(-0.791708 -0.6109 0.878694 -0.477386 228.159 805.934)" stroke="#E6E8EE" stroke-opacity="0.1" stroke-width="2.22222"/>
<line y1="-1.11111" x2="30.4245" y2="-1.11111" transform="matrix(-0.665536 -0.746365 0.936693 -0.350151 314.942 806.754)" stroke="#E6E8EE" stroke-opacity="0.1" stroke-width="2.22222"/>
<line y1="-1.11111" x2="28.2657" y2="-1.11111" transform="matrix(-0.490024 -0.871709 0.973338 -0.229377 401.266 807.574)" stroke="#E6E8EE" stroke-opacity="0.1" stroke-width="2.22222"/>
<line y1="-1.11111" x2="26.7628" y2="-1.11111" transform="matrix(-0.262764 -0.96486 0.993546 -0.113429 487.273 808.393)" stroke="#E6E8EE" stroke-opacity="0.1" stroke-width="2.22222"/>
<line x1="572.004" y1="808.393" x2="572.004" y2="782.172" stroke="#E6E8EE" stroke-opacity="0.1" stroke-width="2.22222"/>
<line y1="-1.11111" x2="26.7628" y2="-1.11111" transform="matrix(0.262764 -0.96486 0.993546 0.113429 658.957 808.393)" stroke="#E6E8EE" stroke-opacity="0.1" stroke-width="2.22222"/>
<line y1="-1.11111" x2="28.2657" y2="-1.11111" transform="matrix(0.490025 -0.871709 0.973338 0.229376 653.852 853.459)" stroke="#E6E8EE" stroke-opacity="0.1" stroke-width="2.22222"/>
<line y1="-1.11111" x2="30.4245" y2="-1.11111" transform="matrix(0.665536 -0.746366 0.936693 0.350152 740.164 852.641)" stroke="#E6E8EE" stroke-opacity="0.1" stroke-width="2.22222"/>
<line y1="-1.11111" x2="32.8797" y2="-1.11111" transform="matrix(0.791708 -0.6109 0.878694 0.477386 826.946 851.821)" stroke="#E6E8EE" stroke-opacity="0.1" stroke-width="2.22222"/>
<line y1="-1.11111" x2="35.3055" y2="-1.11111" transform="matrix(0.878694 -0.477386 0.791708 0.6109 914.324 850.183)" stroke="#E6E8EE" stroke-opacity="0.1" stroke-width="2.22222"/>
<line y1="-1.11111" x2="35.3055" y2="-1.11111" transform="matrix(-0.878694 -0.477386 0.791708 -0.6109 49.668 850.183)" stroke="#E6E8EE" stroke-opacity="0.1" stroke-width="2.22222"/>
<line y1="-1.11111" x2="32.8797" y2="-1.11111" transform="matrix(-0.791708 -0.6109 0.878694 -0.477386 137.047 851.821)" stroke="#E6E8EE" stroke-opacity="0.1" stroke-width="2.22222"/>
<line y1="-1.11111" x2="30.4245" y2="-1.11111" transform="matrix(-0.665536 -0.746365 0.936693 -0.350151 223.828 852.641)" stroke="#E6E8EE" stroke-opacity="0.1" stroke-width="2.22222"/>
<line y1="-1.11111" x2="28.2657" y2="-1.11111" transform="matrix(-0.490025 -0.871708 0.973338 -0.229376 310.141 853.459)" stroke="#E6E8EE" stroke-opacity="0.1" stroke-width="2.22222"/>
<line y1="-1.11111" x2="26.7628" y2="-1.11111" transform="matrix(-0.262764 -0.96486 0.993546 -0.113429 396.148 854.28)" stroke="#E6E8EE" stroke-opacity="0.1" stroke-width="2.22222"/>
<line x1="480.879" y1="854.28" x2="480.879" y2="828.059" stroke="#E6E8EE" stroke-opacity="0.1" stroke-width="2.22222"/>
<line y1="-1.11111" x2="26.7628" y2="-1.11111" transform="matrix(0.262762 -0.964861 0.993546 0.11343 567.845 854.28)" stroke="#E6E8EE" stroke-opacity="0.1" stroke-width="2.22222"/>
</svg>
