<svg width="182" height="182" viewBox="0 0 182 182" fill="none" xmlns="http://www.w3.org/2000/svg">
<path d="M75.4106 171.912L75.1986 172.719L65.7604 170.198L65.9725 169.391L70.2144 170.524L73.9199 156.426L74.8743 156.681L71.1688 170.779L75.4106 171.912Z" fill="white"/>
<path d="M54.6956 147.907L51.082 154.438L58.9276 158.849L62.5411 152.319L63.4022 152.803L55.9412 166.287L55.0801 165.803L58.5237 159.579L50.6782 155.168L47.2346 161.392L46.3735 160.907L53.8345 147.423L54.6956 147.907Z" fill="white"/>
<path d="M32.0741 148.869L32.6414 148.257L37.5937 152.925L41.9678 148.209L37.4947 143.993L38.062 143.381L42.5351 147.597L46.939 142.849L41.9867 138.181L42.554 137.57L48.2252 142.915L37.7453 154.214L32.0741 148.869Z" fill="white"/>
<path d="M25.732 118.838C23.9004 119.74 23.3889 121.705 24.4899 123.977L26.1366 127.374L32.1433 124.416L30.4679 120.959C29.3765 118.707 27.5832 117.926 25.732 118.838ZM19.3366 122.403C17.7414 123.189 17.1166 124.769 18.2368 127.081L19.8739 130.459L25.3686 127.753L23.6836 124.276C22.6592 122.162 21.05 121.56 19.3366 122.403ZM25.3602 117.92C27.4281 116.901 29.7807 117.578 31.2073 120.522L33.3422 124.927L19.517 131.736L17.4203 127.409C16.0129 124.505 16.9268 122.465 18.8174 121.534C20.708 120.602 22.2964 121.313 23.2924 122.462C22.8022 120.746 23.5877 118.793 25.3602 117.92Z" fill="white"/>
<path d="M10.3878 105.702L11.2007 105.514L12.7068 112.151L18.9745 110.705L17.6141 104.711L18.427 104.524L19.7874 110.518L26.0978 109.063L24.5916 102.426L25.4045 102.239L27.1293 109.839L12.1126 113.302L10.3878 105.702Z" fill="white"/>
<path d="M20.8331 86.4022C22.8088 86.4111 24.8648 88.0009 24.8498 91.162C24.835 94.2574 23.0263 96.0494 20.8741 96.2154L20.879 95.1837C22.1531 95.0137 23.9798 94.056 23.9936 91.1582C24.0047 88.8312 22.6065 87.398 20.8503 87.3902C15.8671 87.3679 18.9433 95.9873 13.082 95.9611C10.8867 95.9512 9.11733 94.0993 9.13104 91.2235C9.14485 88.3257 10.8427 86.7527 12.6443 86.4534L12.6393 87.5071C11.5626 87.7219 9.9986 88.8345 9.98709 91.2493C9.95551 93.2688 11.1109 94.9644 13.0647 94.9731C18.048 94.9954 15.0376 86.3763 20.8331 86.4022Z" fill="white"/>
<path d="M11.2217 77.0496L10.412 76.8491L12.725 67.3579L13.5347 67.5584L12.4952 71.8241L26.6445 75.3282L26.4106 76.288L12.2613 72.7839L11.2217 77.0496Z" fill="white"/>
<path d="M28.5223 51.3295L30.4044 48.6274C32.0857 46.2136 31.6326 44.5212 29.9304 43.3163C28.1565 42.0607 26.4594 42.231 24.7781 44.6449L22.896 47.3469L28.5223 51.3295ZM30.4951 42.5057C32.6811 44.0531 33.066 46.3427 31.1211 49.1348L29.239 51.8368L34.7578 55.7433L34.1931 56.5539L21.6146 47.6502L24.0613 44.1375C26.0815 41.2373 28.4165 41.0344 30.4951 42.5057Z" fill="white"/>
<path d="M43.2724 29.8855C41.8531 28.2396 40.1057 27.9612 37.8768 29.9144L35.4332 32.0557L40.0925 37.4589L42.5691 35.2887C44.6989 33.4223 44.62 31.4483 43.2724 29.8855ZM34.1168 32.0418L37.3033 29.2494C39.978 26.9056 42.3854 27.277 44.0484 29.2055C45.5537 30.9512 45.6691 33.0683 43.9481 35.0727L51.3299 37.448L50.4383 38.2293L43.1799 35.8626L43.1138 35.9205L40.6373 38.0907L44.9238 43.0616L44.1808 43.7127L34.1168 32.0418Z" fill="white"/>
<path d="M66.3926 20.3713C68.3943 24.5242 66.9463 28.8512 63.0822 30.7439C59.2181 32.6366 54.9487 31.1101 52.947 26.9572C50.9358 22.7846 52.3933 18.4774 56.2574 16.5847C60.1215 14.6919 64.3813 16.1987 66.3926 20.3713ZM53.8539 26.513C55.7317 30.4088 59.448 31.5463 62.701 29.9529C65.9539 28.3595 67.3438 24.721 65.466 20.8252C63.5787 16.9096 59.8821 15.7625 56.6291 17.3559C53.3762 18.9493 51.9666 22.5975 53.8539 26.513Z" fill="white"/>
<path d="M73.9085 18.593L77.1419 17.9695C80.0303 17.4124 80.88 15.8848 80.4911 13.8358C80.0859 11.7006 78.7451 10.6401 75.8566 11.1971L72.6233 11.8207L73.9085 18.593ZM81.4611 13.6487C81.9605 16.28 80.6467 18.1878 77.3056 18.8322L74.0722 19.4557L75.3329 26.0987L74.3629 26.2857L71.4896 11.145L75.6929 10.3344C79.1634 9.66513 80.9864 11.1469 81.4611 13.6487Z" fill="white"/>
<path d="M98.8789 9.08464L98.8454 9.91818L92.0456 9.64052L91.7871 16.0675L97.9288 16.3183L97.8953 17.1518L91.7536 16.901L91.4933 23.3719L98.2931 23.6496L98.2595 24.4831L90.4728 24.1651L91.0921 8.76668L98.8789 9.08464Z" fill="white"/>
<path d="M115.713 17.1553C116.289 15.0595 115.55 13.4402 112.695 12.6437L109.565 11.7705L107.676 18.6505L110.848 19.5355C113.576 20.2966 115.167 19.1452 115.713 17.1553ZM108.846 10.6582L112.927 11.7969C116.353 12.7527 117.381 14.9769 116.707 17.4326C116.097 19.6554 114.407 20.9161 111.792 20.5739L113.922 28.0738L112.78 27.7552L110.712 20.3636L110.627 20.34L107.456 19.455L105.718 25.7846L104.766 25.5191L108.846 10.6582Z" fill="white"/>
<path d="M126.041 17.4293L126.443 16.6983L134.971 21.465L134.568 22.1959L130.736 20.0536L123.71 32.8255L122.848 32.3435L129.874 19.5716L126.041 17.4293Z" fill="white"/>
<path d="M139.902 36.902L142.486 26.7921L143.308 27.5525L140.877 36.5482L149.544 33.3223L150.366 34.0827L140.627 37.5729L136.429 42.183L135.704 41.512L139.902 36.902Z" fill="white"/>
<path d="M156.505 55.8533L157.929 58.8227C159.2 61.4753 160.888 61.8984 162.763 60.985C164.717 60.0332 165.397 58.4564 164.126 55.8037L162.702 52.8344L156.505 55.8533ZM163.19 61.8758C160.782 63.0488 158.61 62.2756 157.139 59.2072L155.716 56.2379L149.637 59.1991L149.21 58.3083L163.064 51.559L164.915 55.4192C166.443 58.6063 165.479 60.7606 163.19 61.8758Z" fill="white"/>
<path d="M170.353 69.9533L170.574 70.9162L156.378 74.2275L157.66 79.8119L156.848 80.0014L155.345 73.4541L170.353 69.9533Z" fill="white"/>
<path d="M157.672 96.898L161.637 95.4626L161.701 88.1526L157.763 86.6464L157.772 85.5708L172.781 91.3693L172.772 92.4669L157.663 97.9737L157.672 96.898ZM162.474 95.1628L171.481 91.9065L162.533 88.4674L162.474 95.1628Z" fill="white"/>
<path d="M170.923 107.367L171.729 107.582L169.249 117.031L168.443 116.816L169.558 112.569L155.473 108.812L155.724 107.857L169.809 111.613L170.923 107.367Z" fill="white"/>
<path d="M151.791 119.479L165.426 126.661L161.769 133.716L161.031 133.328L164.233 127.149L158.542 124.152L155.744 129.551L155.006 129.162L157.804 123.763L151.336 120.356L151.791 119.479Z" fill="white"/>
<path d="M140.823 147.833C137.404 144.741 137.11 140.183 139.971 136.969C142.831 133.755 147.357 133.556 150.776 136.648C154.212 139.755 154.489 144.298 151.629 147.512C148.768 150.726 144.259 150.94 140.823 147.833ZM150.105 137.403C146.897 134.502 143.03 134.852 140.622 137.558C138.214 140.264 138.301 144.161 141.509 147.062C144.733 149.977 148.586 149.644 150.994 146.938C153.402 144.232 153.329 140.318 150.105 137.403Z" fill="white"/>
<path d="M130.188 159.229C131.366 161.056 133.058 161.574 135.537 159.95L138.255 158.17L134.389 152.173L131.635 153.978C129.266 155.53 129.07 157.495 130.188 159.229ZM139.557 158.366L136.013 160.688C133.038 162.637 130.705 161.935 129.325 159.795C128.076 157.857 128.256 155.745 130.239 154L123.256 150.623L124.247 149.973L131.109 153.325L131.183 153.277L133.937 151.472L130.38 145.955L131.207 145.414L139.557 158.366Z" fill="white"/>
<path d="M117.351 153.712L121.768 168.132L120.762 168.446L110.855 157.091L109.024 172.1L108.039 172.406L103.622 157.986L104.565 157.692L108.378 170.14L110.098 155.97L110.853 155.735L120.221 166.453L116.408 154.006L117.351 153.712Z" fill="white"/>
<path d="M90.1109 55.6666L96.4804 86.5194L127.333 92.8888L96.4804 99.2583L90.1109 130.111L83.7414 99.2583L52.8887 92.8888L83.7414 86.5194L90.1109 55.6666Z" fill="white"/>
</svg>
