<svg width="124" height="123" viewBox="0 0 124 123" fill="none" xmlns="http://www.w3.org/2000/svg">
<circle cx="56.4442" cy="67" r="55" stroke="white" stroke-opacity="0.5" stroke-width="1.11111"/>
<circle cx="67.5556" cy="55.8888" r="55" stroke="white" stroke-opacity="0.5" stroke-width="1.11111"/>
<path d="M25.474 38.6734L21.8137 27.8592L10.6868 25.8972L21.428 21.8873L23.6556 10.5217L27.3159 21.3359L38.4429 23.2979L27.7017 27.3078L25.474 38.6734Z" fill="#E09B6B"/>
<path d="M25.3682 37.0347L22.2129 27.7128L22.1356 27.4842L21.8979 27.4423L12.2859 25.7474L21.5647 22.2835L21.7941 22.1978L21.8412 21.9576L23.7615 12.1604L26.9167 21.4823L26.994 21.7109L27.2317 21.7528L36.8437 23.4477L27.5649 26.9116L27.3355 26.9973L27.2884 27.2375L25.3682 37.0347Z" stroke="white" stroke-opacity="0.5" stroke-width="0.844444"/>
</svg>
